HIERARCHY
ROOT Hips
{
	OFFSET -0.001795 -0.223333 0.028219
	CHANNELS 6 Xposition Yposition Zposition Zrotation Yrotation Xrotation 
	JOINT LeftUpLeg
	{
		OFFSET 0.069520 -0.091406 -0.006815
		CHANNELS 3 Zrotation Yrotation Xrotation
		JOINT LeftLeg
		{
			OFFSET 0.034277 -0.375199 -0.004496
			CHANNELS 3 Zrotation Yrotation Xrotation
			JOINT LeftFoot
			{
				OFFSET -0.013596 -0.397961 -0.043693
				CHANNELS 3 Zrotation Yrotation Xrotation
				JOINT LeftToe
				{
					OFFSET 0.026358 -0.055791 0.119288
					CHANNELS 3 Zrotation Yrotation Xrotation
					End Site
					{
						OFFSET 0.000000 0.000000 0.000000
					}
				}
			}
		}
	}
	JOINT RightUpLeg
	{
		OFFSET -0.067670 -0.090522 -0.004320
		CHANNELS 3 Zrotation Yrotation Xrotation
		JOINT RightLeg
		{
			OFFSET -0.038290 -0.382569 -0.008850
			CHANNELS 3 Zrotation Yrotation Xrotation
			JOINT RightFoot
			{
				OFFSET 0.015774 -0.398415 -0.042312
				CHANNELS 3 Zrotation Yrotation Xrotation
				JOINT RightToe
				{
					OFFSET -0.025372 -0.048144 0.123348
					CHANNELS 3 Zrotation Yrotation Xrotation
					End Site
					{
						OFFSET 0.000000 0.000000 0.000000
					}
				}
			}
		}
	}
	JOINT Spine
	{
		OFFSET -0.002533 0.108963 -0.026696
		CHANNELS 3 Zrotation Yrotation Xrotation
		JOINT Spine1
		{
			OFFSET 0.005487 0.135180 0.001092
			CHANNELS 3 Zrotation Yrotation Xrotation
			JOINT Spine2
			{
				OFFSET 0.001457 0.052922 0.025425
				CHANNELS 3 Zrotation Yrotation Xrotation
				JOINT Neck
				{
					OFFSET -0.002778 0.213870 -0.042857
					CHANNELS 3 Zrotation Yrotation Xrotation
					JOINT Head
					{
						OFFSET 0.005152 0.064970 0.051349
						CHANNELS 3 Zrotation Yrotation Xrotation
						End Site
						{
							OFFSET 0.000000 0.000000 0.000000
						}
					}
				}
				JOINT LeftShoulder
				{
					OFFSET 0.078845 0.121749 -0.034090
					CHANNELS 3 Zrotation Yrotation Xrotation
					JOINT LeftArm
					{
						OFFSET 0.090977 0.030469 -0.008868
						CHANNELS 3 Zrotation Yrotation Xrotation
						JOINT LeftForeArm
						{
							OFFSET 0.259612 -0.012772 -0.027456
							CHANNELS 3 Zrotation Yrotation Xrotation
							JOINT LeftHand
							{
								OFFSET 0.249234 0.008986 -0.001171
								CHANNELS 3 Zrotation Yrotation Xrotation
								End Site
								{
									OFFSET 0.000000 0.000000 0.000000
								}
							}
						}
					}
				}
				JOINT RightShoulder
				{
					OFFSET -0.081759 0.118833 -0.038615
					CHANNELS 3 Zrotation Yrotation Xrotation
					JOINT RightArm
					{
						OFFSET -0.096012 0.032551 -0.009143
						CHANNELS 3 Zrotation Yrotation Xrotation
						JOINT RightForeArm
						{
							OFFSET -0.253742 -0.013329 -0.021401
							CHANNELS 3 Zrotation Yrotation Xrotation
							JOINT RightHand
							{
								OFFSET -0.255298 0.007772 -0.005559
								CHANNELS 3 Zrotation Yrotation Xrotation
								End Site
								{
									OFFSET 0.000000 0.000000 0.000000
								}
							}
						}
					}
				}
			}
		}
	}
}
MOTION
Frames: 7
Frame Time: 0.050000
0.000000 0.952324 0.000000 -1.130226 1.830036 0.887745 6.716459 0.023522 5.056876 -4.232984 0.413421 -7.379003 3.351405 10.314472 12.394661 0.000000 0.000000 0.000000 -2.486586 -0.298490 4.343873 2.448722 -0.330469 -3.381689 -3.973076 -12.233445 11.739052 0.000000 0.000000 0.000000 -2.240937 0.008333 0.701742 3.688180 -0.326190 -22.733368 -1.375484 -1.085618 29.220616 0.550836 1.173181 -24.884219 0.000000 0.000000 0.000000 -25.765072 4.055390 -4.107605 -54.620672 -5.697230 -6.538096 -4.450560 -21.900485 2.057470 0.000000 0.000000 0.000000 16.301683 0.922937 -0.268116 62.101727 4.508084 -6.518993 1.496469 24.489264 1.532594 0.000000 0.000000 0.000000 
0.000016 0.951393 0.000389 -1.151608 1.421385 1.249799 7.277630 -0.005971 5.176179 -4.787392 0.435760 -7.886930 3.493370 10.450370 12.181856 0.000000 0.000000 0.000000 -2.636990 -0.220181 3.558595 2.863587 -0.352051 -2.793813 -3.965531 -12.118635 10.864561 0.000000 0.000000 0.000000 -2.173050 0.032635 -0.332570 3.731165 -0.390992 -21.862769 -1.793054 -0.762525 28.958747 0.410508 1.280661 -24.954700 0.000000 0.000000 0.000000 -26.254387 5.207997 -4.952844 -54.656319 -5.645501 -6.520431 -4.174311 -21.979354 2.019331 0.000000 0.000000 0.000000 16.244700 0.682060 -0.394628 63.462945 3.386890 -7.177046 0.375130 26.592627 1.480280 0.000000 0.000000 0.000000 
0.000158 0.951207 0.000500 -0.757532 1.193096 1.180930 6.922156 0.014241 4.781066 -5.239828 0.476637 -6.396344 3.445330 10.195156 11.424798 0.000000 0.000000 0.000000 -3.136173 -0.204528 3.739375 2.663351 -0.343951 -3.410866 -3.790520 -11.887687 11.336313 0.000000 0.000000 0.000000 -1.998037 0.034762 -0.505352 3.022769 -0.194203 -22.161752 -1.786534 -1.240830 29.392794 0.256528 1.222333 -24.296167 0.000000 0.000000 0.000000 -26.138415 4.803147 -4.429467 -54.601517 -5.793218 -6.553175 -2.800973 -21.398996 1.735294 0.000000 0.000000 0.000000 16.487614 1.425622 -0.160971 62.759258 3.044046 -7.356976 0.839785 25.934458 1.479184 0.000000 0.000000 0.000000 
0.000227 0.951176 0.000616 -0.694943 0.849707 1.046120 7.048121 0.022816 4.989878 -5.389365 0.490203 -6.339696 3.502797 10.290764 11.579863 0.000000 0.000000 0.000000 -3.339663 -0.197524 3.840220 2.863936 -0.354040 -3.181463 -3.790143 -11.991685 11.766226 0.000000 0.000000 0.000000 -2.102623 0.043603 -0.895408 3.298446 -0.282294 -22.020716 -2.043230 -1.344306 29.551410 0.347112 1.082126 -23.763742 0.000000 0.000000 0.000000 -26.743741 5.662002 -4.954487 -54.754499 -5.497471 -6.721650 -2.795432 -21.067135 1.727086 0.000000 0.000000 0.000000 16.135315 1.441026 -0.202524 63.099367 2.883136 -7.502578 1.331495 26.217437 1.593430 0.000000 0.000000 0.000000 
0.000200 0.951597 0.000571 -0.700107 0.962115 0.825750 6.907961 0.032864 5.008660 -5.400828 0.491802 -6.175273 3.335506 10.048311 11.644029 0.000000 0.000000 0.000000 -3.261427 -0.227021 4.139029 2.406443 -0.323932 -3.473281 -3.649527 -11.752927 11.954594 0.000000 0.000000 0.000000 -2.025725 0.033870 -0.549600 3.543377 -0.364343 -21.671715 -2.342935 -1.419745 29.035465 0.396205 1.023945 -23.178898 0.000000 0.000000 0.000000 -26.622885 5.516392 -4.863052 -54.976280 -5.467116 -6.700712 -2.755189 -20.641303 1.671524 0.000000 0.000000 0.000000 16.027052 1.432318 -0.218524 63.077057 2.806147 -7.479544 1.640475 25.597264 1.595800 0.000000 0.000000 0.000000 
0.000220 0.952027 0.000458 -0.700001 0.920874 0.746776 6.916897 0.034222 4.995034 -5.434352 0.496265 -6.044352 3.435386 10.227405 11.748062 0.000000 0.000000 0.000000 -3.338969 -0.235840 4.321111 2.357490 -0.321597 -3.558289 -3.479018 -11.480901 12.185752 0.000000 0.000000 0.000000 -2.169394 0.036450 -0.656745 3.666294 -0.384692 -21.908064 -2.296354 -1.641184 29.566688 0.548471 0.874885 -23.111412 0.000000 0.000000 0.000000 -26.699575 5.733550 -4.899981 -55.315379 -5.637423 -6.734189 -2.699393 -20.306341 1.651580 0.000000 0.000000 0.000000 15.551094 1.280069 -0.309690 63.332009 2.763758 -7.596854 2.030514 25.249533 1.643164 0.000000 0.000000 0.000000 
0.000212 0.952122 0.000270 -0.777829 0.846058 0.686530 7.018506 0.031249 5.017900 -5.533325 0.503812 -5.974481 3.516812 10.403990 12.001034 0.000000 0.000000 0.000000 -3.185493 -0.245075 4.325754 2.238542 -0.312854 -3.600400 -3.251966 -11.034969 12.019280 0.000000 0.000000 0.000000 -2.084746 0.033721 -0.565261 3.813118 -0.431193 -21.807859 -2.446670 -1.762646 29.557148 0.960386 0.584515 -23.052782 0.000000 0.000000 0.000000 -26.717098 5.665004 -4.794986 -55.298399 -5.456469 -6.831350 -2.793400 -20.224896 1.664909 0.000000 0.000000 0.000000 15.570609 1.388419 -0.293304 63.256352 2.508356 -7.731912 2.035233 25.157234 1.625552 0.000000 0.000000 0.000000 
